G75*
%MOIN*%
%OFA0B0*%
%FSLAX25Y25*%
%IPPOS*%
%LPD*%
%AMOC8*
5,1,8,0,0,1.08239X$1,22.5*
%
%ADD10C,0.01600*%
D10*
X0047000Y0061500D02*
X0050000Y0061500D01*
X0050000Y0026500D01*
X0011000Y0026500D01*
X0011000Y0074000D01*
X0014500Y0074000D01*
X0014500Y0066500D01*
X0047000Y0066500D01*
X0047000Y0061500D01*
X0050000Y0027175D02*
X0011000Y0027175D01*
X0011000Y0028773D02*
X0050000Y0028773D01*
X0050000Y0030372D02*
X0011000Y0030372D01*
X0011000Y0031970D02*
X0050000Y0031970D01*
X0050000Y0033569D02*
X0011000Y0033569D01*
X0011000Y0035167D02*
X0050000Y0035167D01*
X0050000Y0036766D02*
X0011000Y0036766D01*
X0011000Y0038364D02*
X0050000Y0038364D01*
X0050000Y0039963D02*
X0011000Y0039963D01*
X0011000Y0041561D02*
X0050000Y0041561D01*
X0050000Y0043160D02*
X0011000Y0043160D01*
X0011000Y0044758D02*
X0050000Y0044758D01*
X0050000Y0046357D02*
X0011000Y0046357D01*
X0011000Y0047955D02*
X0050000Y0047955D01*
X0050000Y0049554D02*
X0011000Y0049554D01*
X0011000Y0051152D02*
X0050000Y0051152D01*
X0050000Y0052751D02*
X0011000Y0052751D01*
X0011000Y0054349D02*
X0050000Y0054349D01*
X0050000Y0055948D02*
X0011000Y0055948D01*
X0011000Y0057546D02*
X0050000Y0057546D01*
X0050000Y0059145D02*
X0011000Y0059145D01*
X0011000Y0060743D02*
X0050000Y0060743D01*
X0047000Y0062342D02*
X0011000Y0062342D01*
X0011000Y0063940D02*
X0047000Y0063940D01*
X0047000Y0065539D02*
X0011000Y0065539D01*
X0011000Y0067137D02*
X0014500Y0067137D01*
X0014500Y0068736D02*
X0011000Y0068736D01*
X0011000Y0070334D02*
X0014500Y0070334D01*
X0014500Y0071933D02*
X0011000Y0071933D01*
X0011000Y0073532D02*
X0014500Y0073532D01*
X0053500Y0067000D02*
X0053500Y0028000D01*
X0063500Y0028000D01*
X0071500Y0036000D01*
X0075500Y0040000D01*
X0088000Y0040000D01*
X0088000Y0067000D01*
X0054000Y0067000D01*
X0053500Y0067000D01*
X0053500Y0028773D02*
X0064273Y0028773D01*
X0065872Y0030372D02*
X0053500Y0030372D01*
X0053500Y0031970D02*
X0067470Y0031970D01*
X0069069Y0033569D02*
X0053500Y0033569D01*
X0053500Y0035167D02*
X0070667Y0035167D01*
X0072266Y0036766D02*
X0053500Y0036766D01*
X0053500Y0038364D02*
X0073864Y0038364D01*
X0075463Y0039963D02*
X0053500Y0039963D01*
X0053500Y0041561D02*
X0088000Y0041561D01*
X0088000Y0043160D02*
X0053500Y0043160D01*
X0053500Y0044758D02*
X0088000Y0044758D01*
X0088000Y0046357D02*
X0053500Y0046357D01*
X0053500Y0047955D02*
X0088000Y0047955D01*
X0088000Y0049554D02*
X0053500Y0049554D01*
X0053500Y0051152D02*
X0088000Y0051152D01*
X0088000Y0052751D02*
X0053500Y0052751D01*
X0053500Y0054349D02*
X0088000Y0054349D01*
X0088000Y0055948D02*
X0053500Y0055948D01*
X0053500Y0057546D02*
X0088000Y0057546D01*
X0088000Y0059145D02*
X0053500Y0059145D01*
X0053500Y0060743D02*
X0088000Y0060743D01*
X0088000Y0062342D02*
X0053500Y0062342D01*
X0053500Y0063940D02*
X0088000Y0063940D01*
X0088000Y0065539D02*
X0053500Y0065539D01*
M02*
