G75*
%MOIN*%
%OFA0B0*%
%FSLAX25Y25*%
%IPPOS*%
%LPD*%
%AMOC8*
5,1,8,0,0,1.08239X$1,22.5*
%
%ADD10C,0.00300*%
D10*
X0074842Y0077101D02*
X0076694Y0077101D01*
X0077311Y0076484D01*
X0077311Y0075250D01*
X0076694Y0074633D01*
X0074842Y0074633D01*
X0073628Y0077101D02*
X0073628Y0075250D01*
X0073011Y0074633D01*
X0071159Y0074633D01*
X0071159Y0077101D02*
X0071159Y0074015D01*
X0071776Y0073398D01*
X0072393Y0073398D01*
X0067476Y0075250D02*
X0068093Y0074633D01*
X0069328Y0074633D01*
X0069945Y0075250D01*
X0069945Y0077719D01*
X0069328Y0078336D01*
X0068093Y0078336D01*
X0067476Y0077719D01*
X0067476Y0076484D01*
X0068093Y0075867D01*
X0069328Y0075867D01*
X0069328Y0077101D01*
X0068093Y0077101D01*
X0068093Y0075867D01*
X0064410Y0074633D02*
X0065644Y0074633D01*
X0066262Y0075250D01*
X0066262Y0076484D01*
X0065644Y0077101D01*
X0064410Y0077101D01*
X0063793Y0076484D01*
X0063793Y0075867D01*
X0066262Y0075867D01*
X0062578Y0078336D02*
X0061961Y0078336D01*
X0061961Y0074633D01*
X0062578Y0074633D02*
X0061344Y0074633D01*
X0058271Y0074633D02*
X0059506Y0074633D01*
X0060123Y0075250D01*
X0060123Y0076484D01*
X0059506Y0077101D01*
X0058271Y0077101D01*
X0057654Y0076484D01*
X0057654Y0075867D01*
X0060123Y0075867D01*
X0053971Y0077101D02*
X0055823Y0077101D01*
X0056440Y0076484D01*
X0056440Y0075250D01*
X0055823Y0074633D01*
X0053971Y0074633D01*
X0052757Y0076484D02*
X0050288Y0076484D01*
X0049074Y0077101D02*
X0049074Y0074633D01*
X0049074Y0075867D02*
X0047839Y0077101D01*
X0047222Y0077101D01*
X0044153Y0074633D02*
X0045387Y0074633D01*
X0046004Y0075250D01*
X0046004Y0076484D01*
X0045387Y0077101D01*
X0044153Y0077101D01*
X0043535Y0076484D01*
X0043535Y0075867D01*
X0046004Y0075867D01*
X0041704Y0077101D02*
X0040470Y0077101D01*
X0039852Y0076484D01*
X0039852Y0074633D01*
X0041704Y0074633D01*
X0042321Y0075250D01*
X0041704Y0075867D01*
X0039852Y0075867D01*
X0038638Y0078336D02*
X0038021Y0078336D01*
X0038021Y0074633D01*
X0038638Y0074633D02*
X0037404Y0074633D01*
X0036183Y0074633D02*
X0036183Y0075250D01*
X0035565Y0075250D01*
X0035565Y0074633D01*
X0036183Y0074633D01*
X0031872Y0077101D02*
X0033724Y0077101D01*
X0034341Y0076484D01*
X0034341Y0075250D01*
X0033724Y0074633D01*
X0031872Y0074633D01*
X0030041Y0074633D02*
X0028806Y0074633D01*
X0028189Y0075250D01*
X0028189Y0076484D01*
X0028806Y0077101D01*
X0030041Y0077101D01*
X0030658Y0076484D01*
X0030658Y0075250D01*
X0030041Y0074633D01*
X0026975Y0074633D02*
X0026975Y0077101D01*
X0026358Y0077101D01*
X0025740Y0076484D01*
X0025740Y0074633D01*
X0025740Y0076484D02*
X0025123Y0077101D01*
X0024506Y0076484D01*
X0024506Y0074633D01*
X0085055Y0072143D02*
X0085055Y0068440D01*
X0085055Y0070291D02*
X0084438Y0070909D01*
X0083204Y0070909D01*
X0082587Y0070291D01*
X0082587Y0068440D01*
X0079521Y0068440D02*
X0080755Y0068440D01*
X0081372Y0069057D01*
X0081372Y0070291D01*
X0080755Y0070909D01*
X0079521Y0070909D01*
X0078904Y0070291D01*
X0078904Y0069674D01*
X0081372Y0069674D01*
X0077072Y0070909D02*
X0075838Y0070909D01*
X0075220Y0070291D01*
X0075220Y0068440D01*
X0077072Y0068440D01*
X0077689Y0069057D01*
X0077072Y0069674D01*
X0075220Y0069674D01*
X0071537Y0072143D02*
X0071537Y0068440D01*
X0073389Y0068440D01*
X0074006Y0069057D01*
X0074006Y0070291D01*
X0073389Y0070909D01*
X0071537Y0070909D01*
X0070323Y0072143D02*
X0069706Y0072143D01*
X0069706Y0068440D01*
X0070323Y0068440D02*
X0069089Y0068440D01*
X0067867Y0070909D02*
X0067250Y0070909D01*
X0067250Y0068440D01*
X0067867Y0068440D02*
X0066633Y0068440D01*
X0067250Y0072143D02*
X0067250Y0072760D01*
X0064178Y0067205D02*
X0063560Y0067205D01*
X0062943Y0067823D01*
X0062943Y0070909D01*
X0064795Y0070909D01*
X0065412Y0070291D01*
X0065412Y0069057D01*
X0064795Y0068440D01*
X0062943Y0068440D01*
X0061729Y0068440D02*
X0061729Y0072143D01*
X0061729Y0070291D02*
X0061112Y0070909D01*
X0059877Y0070909D01*
X0059260Y0070291D01*
X0059260Y0068440D01*
X0057429Y0071526D02*
X0057429Y0069057D01*
X0056811Y0068440D01*
X0056811Y0070909D02*
X0058046Y0070909D01*
X0055590Y0068440D02*
X0053739Y0068440D01*
X0053122Y0069057D01*
X0053739Y0069674D01*
X0054973Y0069674D01*
X0055590Y0070291D01*
X0054973Y0070909D01*
X0053122Y0070909D01*
X0051907Y0070909D02*
X0051290Y0070909D01*
X0051290Y0070291D01*
X0051907Y0070291D01*
X0051907Y0070909D01*
X0051907Y0069057D02*
X0051290Y0069057D01*
X0051290Y0068440D01*
X0051907Y0068440D01*
X0051907Y0069057D01*
X0046382Y0072143D02*
X0046382Y0069674D01*
X0045148Y0068440D01*
X0043914Y0069674D01*
X0043914Y0072143D01*
X0042699Y0070909D02*
X0041465Y0072143D01*
X0041465Y0068440D01*
X0042699Y0068440D02*
X0040231Y0068440D01*
X0039016Y0068440D02*
X0039016Y0069057D01*
X0038399Y0069057D01*
X0038399Y0068440D01*
X0039016Y0068440D01*
X0034706Y0072143D02*
X0035940Y0071526D01*
X0037175Y0070291D01*
X0037175Y0069057D01*
X0036557Y0068440D01*
X0035323Y0068440D01*
X0034706Y0069057D01*
X0034706Y0069674D01*
X0035323Y0070291D01*
X0037175Y0070291D01*
X0029808Y0071526D02*
X0029191Y0072143D01*
X0027957Y0072143D01*
X0027340Y0071526D01*
X0027340Y0070909D01*
X0027957Y0070291D01*
X0028574Y0070291D01*
X0027957Y0070291D02*
X0027340Y0069674D01*
X0027340Y0069057D01*
X0027957Y0068440D01*
X0029191Y0068440D01*
X0029808Y0069057D01*
X0026125Y0068440D02*
X0023656Y0072143D01*
X0022442Y0070909D02*
X0021208Y0072143D01*
X0021208Y0068440D01*
X0022442Y0068440D02*
X0019973Y0068440D01*
X0016290Y0072143D02*
X0017525Y0071526D01*
X0018759Y0070291D01*
X0018759Y0069057D01*
X0018142Y0068440D01*
X0016907Y0068440D01*
X0016290Y0069057D01*
X0016290Y0069674D01*
X0016907Y0070291D01*
X0018759Y0070291D01*
M02*
