G75*
%MOIN*%
%OFA0B0*%
%FSLAX25Y25*%
%IPPOS*%
%LPD*%
%AMOC8*
5,1,8,0,0,1.08239X$1,22.5*
%
%ADD10C,0.05906*%
%ADD11C,0.03762*%
%ADD12C,0.01600*%
D10*
X0054500Y0016547D02*
X0054500Y0022453D01*
X0044500Y0022453D02*
X0044500Y0016547D01*
D11*
X0060500Y0081400D03*
X0051000Y0064000D03*
X0066000Y0084000D03*
X0081500Y0078500D03*
X0021500Y0022000D03*
X0027000Y0051000D03*
X0031500Y0051000D03*
X0036000Y0051000D03*
X0040500Y0051000D03*
X0045000Y0051000D03*
X0027000Y0046000D03*
X0031500Y0046000D03*
X0027000Y0041500D03*
X0031500Y0041500D03*
X0054000Y0050000D03*
X0058500Y0050000D03*
X0063000Y0050000D03*
X0067500Y0050000D03*
X0072000Y0050000D03*
X0074000Y0054000D03*
X0069500Y0054000D03*
X0069500Y0058500D03*
X0074000Y0058500D03*
D12*
X0060500Y0081400D02*
X0051000Y0081400D01*
X0051000Y0064000D01*
X0066000Y0084000D02*
X0076000Y0084000D01*
X0081500Y0078500D01*
X0090500Y0069500D01*
X0090500Y0028500D01*
X0071000Y0009000D01*
X0030000Y0009000D01*
X0021500Y0017500D01*
X0021500Y0022000D01*
X0022409Y0012695D02*
X0016501Y0017894D01*
X0011557Y0024017D01*
X0007719Y0030888D01*
X0005097Y0038308D01*
X0003767Y0046065D01*
X0003767Y0053935D01*
X0005097Y0061692D01*
X0007719Y0069112D01*
X0011557Y0075983D01*
X0016501Y0082106D01*
X0022409Y0087305D01*
X0029111Y0091432D01*
X0036413Y0094366D01*
X0044106Y0096024D01*
X0050000Y0096275D01*
X0050000Y0083511D01*
X0048800Y0082311D01*
X0048800Y0066440D01*
X0048218Y0065859D01*
X0047719Y0064653D01*
X0047719Y0063347D01*
X0048218Y0062141D01*
X0049141Y0061218D01*
X0050000Y0060863D01*
X0050000Y0011200D01*
X0030911Y0011200D01*
X0023700Y0018411D01*
X0023700Y0019560D01*
X0024282Y0020141D01*
X0024781Y0021347D01*
X0024781Y0022653D01*
X0024282Y0023859D01*
X0023359Y0024782D01*
X0022153Y0025281D01*
X0020847Y0025281D01*
X0019641Y0024782D01*
X0018718Y0023859D01*
X0018219Y0022653D01*
X0018219Y0021347D01*
X0018718Y0020141D01*
X0019300Y0019560D01*
X0019300Y0016589D01*
X0020589Y0015300D01*
X0024452Y0011436D01*
X0022409Y0012695D01*
X0048853Y0015681D02*
X0048853Y0023319D01*
X0048190Y0024918D01*
X0046966Y0026143D01*
X0045366Y0026805D01*
X0043634Y0026805D01*
X0042034Y0026143D01*
X0040810Y0024918D01*
X0040147Y0023319D01*
X0040147Y0015681D01*
X0040810Y0014082D01*
X0042034Y0012857D01*
X0043634Y0012194D01*
X0045366Y0012194D01*
X0046966Y0012857D01*
X0048190Y0014082D01*
X0048853Y0015681D01*
X0023101Y0012788D02*
X0022303Y0012788D01*
X0029323Y0012788D02*
X0042201Y0012788D01*
X0046799Y0012788D02*
X0050000Y0012788D01*
X0021502Y0014387D02*
X0020486Y0014387D01*
X0027725Y0014387D02*
X0040684Y0014387D01*
X0048316Y0014387D02*
X0050000Y0014387D01*
X0019904Y0015985D02*
X0018670Y0015985D01*
X0026126Y0015985D02*
X0040147Y0015985D01*
X0048853Y0015985D02*
X0050000Y0015985D01*
X0019300Y0017584D02*
X0016854Y0017584D01*
X0024528Y0017584D02*
X0040147Y0017584D01*
X0048853Y0017584D02*
X0050000Y0017584D01*
X0019300Y0019182D02*
X0015461Y0019182D01*
X0023700Y0019182D02*
X0040147Y0019182D01*
X0048853Y0019182D02*
X0050000Y0019182D01*
X0018454Y0020781D02*
X0014170Y0020781D01*
X0024546Y0020781D02*
X0040147Y0020781D01*
X0048853Y0020781D02*
X0050000Y0020781D01*
X0018219Y0022379D02*
X0012880Y0022379D01*
X0024781Y0022379D02*
X0040147Y0022379D01*
X0048853Y0022379D02*
X0050000Y0022379D01*
X0018838Y0023978D02*
X0011589Y0023978D01*
X0024162Y0023978D02*
X0040420Y0023978D01*
X0048580Y0023978D02*
X0050000Y0023978D01*
X0041468Y0025576D02*
X0010686Y0025576D01*
X0047532Y0025576D02*
X0050000Y0025576D01*
X0050000Y0027175D02*
X0009793Y0027175D01*
X0008900Y0028773D02*
X0050000Y0028773D01*
X0050000Y0030372D02*
X0008007Y0030372D01*
X0007337Y0031970D02*
X0050000Y0031970D01*
X0050000Y0033569D02*
X0006772Y0033569D01*
X0006207Y0035167D02*
X0050000Y0035167D01*
X0050000Y0036766D02*
X0005642Y0036766D01*
X0005088Y0038364D02*
X0050000Y0038364D01*
X0050000Y0039963D02*
X0004813Y0039963D01*
X0004539Y0041561D02*
X0050000Y0041561D01*
X0050000Y0043160D02*
X0004265Y0043160D01*
X0003991Y0044758D02*
X0050000Y0044758D01*
X0050000Y0046357D02*
X0003767Y0046357D01*
X0003767Y0047955D02*
X0050000Y0047955D01*
X0050000Y0049554D02*
X0003767Y0049554D01*
X0003767Y0051152D02*
X0050000Y0051152D01*
X0050000Y0052751D02*
X0003767Y0052751D01*
X0003838Y0054349D02*
X0050000Y0054349D01*
X0050000Y0055948D02*
X0004112Y0055948D01*
X0004386Y0057546D02*
X0050000Y0057546D01*
X0050000Y0059145D02*
X0004660Y0059145D01*
X0004935Y0060743D02*
X0050000Y0060743D01*
X0048135Y0062342D02*
X0005327Y0062342D01*
X0005892Y0063940D02*
X0047719Y0063940D01*
X0048086Y0065539D02*
X0006456Y0065539D01*
X0007021Y0067137D02*
X0048800Y0067137D01*
X0048800Y0068736D02*
X0007586Y0068736D01*
X0008402Y0070334D02*
X0048800Y0070334D01*
X0048800Y0071933D02*
X0009295Y0071933D01*
X0010188Y0073532D02*
X0048800Y0073532D01*
X0048800Y0075130D02*
X0011081Y0075130D01*
X0012159Y0076729D02*
X0048800Y0076729D01*
X0048800Y0078327D02*
X0013450Y0078327D01*
X0014741Y0079926D02*
X0048800Y0079926D01*
X0048800Y0081524D02*
X0016031Y0081524D01*
X0017656Y0083123D02*
X0049611Y0083123D01*
X0050000Y0084721D02*
X0019473Y0084721D01*
X0021289Y0086320D02*
X0050000Y0086320D01*
X0050000Y0087918D02*
X0023404Y0087918D01*
X0026000Y0089517D02*
X0050000Y0089517D01*
X0050000Y0091115D02*
X0028596Y0091115D01*
X0032301Y0092714D02*
X0050000Y0092714D01*
X0050000Y0094312D02*
X0036279Y0094312D01*
X0043580Y0095911D02*
X0050000Y0095911D01*
X0087902Y0032235D02*
X0086517Y0035579D01*
X0083958Y0038139D01*
X0080613Y0039524D01*
X0076993Y0039524D01*
X0073649Y0038139D01*
X0071089Y0035579D01*
X0069704Y0032235D01*
X0069704Y0029271D01*
X0066740Y0029271D01*
X0063396Y0027885D01*
X0060836Y0025326D01*
X0059451Y0021982D01*
X0059451Y0018362D01*
X0060836Y0015017D01*
X0063396Y0012458D01*
X0066432Y0011200D01*
X0052200Y0011200D01*
X0052200Y0012789D01*
X0053634Y0012194D01*
X0055366Y0012194D01*
X0056966Y0012857D01*
X0058190Y0014082D01*
X0058853Y0015681D01*
X0058853Y0023319D01*
X0058190Y0024918D01*
X0056966Y0026143D01*
X0055366Y0026805D01*
X0053634Y0026805D01*
X0052200Y0026211D01*
X0052200Y0060946D01*
X0052859Y0061218D01*
X0053782Y0062141D01*
X0054281Y0063347D01*
X0054281Y0064653D01*
X0053782Y0065859D01*
X0053200Y0066440D01*
X0053200Y0079200D01*
X0058060Y0079200D01*
X0058641Y0078618D01*
X0059847Y0078119D01*
X0061153Y0078119D01*
X0062359Y0078618D01*
X0063282Y0079541D01*
X0063781Y0080747D01*
X0063781Y0081579D01*
X0064141Y0081218D01*
X0065347Y0080719D01*
X0066653Y0080719D01*
X0067859Y0081218D01*
X0068440Y0081800D01*
X0075089Y0081800D01*
X0078219Y0078670D01*
X0078219Y0077847D01*
X0078718Y0076641D01*
X0079641Y0075718D01*
X0080847Y0075219D01*
X0081670Y0075219D01*
X0088300Y0068589D01*
X0088300Y0029411D01*
X0087902Y0029014D01*
X0087902Y0032235D01*
X0052201Y0012788D02*
X0052200Y0012788D01*
X0056799Y0012788D02*
X0063065Y0012788D01*
X0061467Y0014387D02*
X0058316Y0014387D01*
X0058853Y0015985D02*
X0060435Y0015985D01*
X0059773Y0017584D02*
X0058853Y0017584D01*
X0058853Y0019182D02*
X0059451Y0019182D01*
X0059451Y0020781D02*
X0058853Y0020781D01*
X0058853Y0022379D02*
X0059616Y0022379D01*
X0060278Y0023978D02*
X0058580Y0023978D01*
X0057532Y0025576D02*
X0061087Y0025576D01*
X0062685Y0027175D02*
X0052200Y0027175D01*
X0052200Y0028773D02*
X0065539Y0028773D01*
X0069704Y0030372D02*
X0052200Y0030372D01*
X0087902Y0030372D02*
X0088300Y0030372D01*
X0069704Y0031970D02*
X0052200Y0031970D01*
X0087902Y0031970D02*
X0088300Y0031970D01*
X0070257Y0033569D02*
X0052200Y0033569D01*
X0087350Y0033569D02*
X0088300Y0033569D01*
X0070919Y0035167D02*
X0052200Y0035167D01*
X0086688Y0035167D02*
X0088300Y0035167D01*
X0072276Y0036766D02*
X0052200Y0036766D01*
X0085330Y0036766D02*
X0088300Y0036766D01*
X0074194Y0038364D02*
X0052200Y0038364D01*
X0083413Y0038364D02*
X0088300Y0038364D01*
X0088300Y0039963D02*
X0052200Y0039963D01*
X0052200Y0041561D02*
X0088300Y0041561D01*
X0088300Y0043160D02*
X0052200Y0043160D01*
X0052200Y0044758D02*
X0088300Y0044758D01*
X0088300Y0046357D02*
X0052200Y0046357D01*
X0052200Y0047955D02*
X0088300Y0047955D01*
X0088300Y0049554D02*
X0052200Y0049554D01*
X0052200Y0051152D02*
X0088300Y0051152D01*
X0088300Y0052751D02*
X0052200Y0052751D01*
X0052200Y0054349D02*
X0088300Y0054349D01*
X0088300Y0055948D02*
X0052200Y0055948D01*
X0052200Y0057546D02*
X0088300Y0057546D01*
X0088300Y0059145D02*
X0052200Y0059145D01*
X0052200Y0060743D02*
X0088300Y0060743D01*
X0088300Y0062342D02*
X0053865Y0062342D01*
X0054281Y0063940D02*
X0088300Y0063940D01*
X0088300Y0065539D02*
X0053914Y0065539D01*
X0053200Y0067137D02*
X0088300Y0067137D01*
X0088153Y0068736D02*
X0053200Y0068736D01*
X0053200Y0070334D02*
X0086554Y0070334D01*
X0084956Y0071933D02*
X0053200Y0071933D01*
X0053200Y0073532D02*
X0083357Y0073532D01*
X0081759Y0075130D02*
X0053200Y0075130D01*
X0053200Y0076729D02*
X0078682Y0076729D01*
X0059345Y0078327D02*
X0053200Y0078327D01*
X0061655Y0078327D02*
X0078219Y0078327D01*
X0076963Y0079926D02*
X0063441Y0079926D01*
X0063781Y0081524D02*
X0063836Y0081524D01*
X0068164Y0081524D02*
X0075365Y0081524D01*
M02*
