%
M48
M72
T01C0.0236
T02C0.0394
T03C0.1260
%
T01
X6050Y8140
X5100Y6400
X6600Y8400
X8150Y7850
X2150Y2200
X2700Y5100
X3150Y5100
X3600Y5100
X4050Y5100
X4500Y5100
X2700Y4600
X3150Y4600
X2700Y4150
X3150Y4150
X5400Y5000
X5850Y5000
X6300Y5000
X6750Y5000
X7200Y5000
X7400Y5400
X6950Y5400
X6950Y5850
X7400Y5850
T02
X5450Y1950
X4450Y1950
T03
X6855Y2017
X7880Y3042
M30
