G75*
%MOIN*%
%OFA0B0*%
%FSLAX25Y25*%
%IPPOS*%
%LPD*%
%AMOC8*
5,1,8,0,0,1.08239X$1,22.5*
%
%ADD10C,0.00000*%
%ADD11C,0.01600*%
D10*
X0062251Y0020172D02*
X0062253Y0020330D01*
X0062259Y0020488D01*
X0062269Y0020646D01*
X0062283Y0020804D01*
X0062301Y0020961D01*
X0062322Y0021118D01*
X0062348Y0021274D01*
X0062378Y0021430D01*
X0062411Y0021585D01*
X0062449Y0021738D01*
X0062490Y0021891D01*
X0062535Y0022043D01*
X0062584Y0022194D01*
X0062637Y0022343D01*
X0062693Y0022491D01*
X0062753Y0022637D01*
X0062817Y0022782D01*
X0062885Y0022925D01*
X0062956Y0023067D01*
X0063030Y0023207D01*
X0063108Y0023344D01*
X0063190Y0023480D01*
X0063274Y0023614D01*
X0063363Y0023745D01*
X0063454Y0023874D01*
X0063549Y0024001D01*
X0063646Y0024126D01*
X0063747Y0024248D01*
X0063851Y0024367D01*
X0063958Y0024484D01*
X0064068Y0024598D01*
X0064181Y0024709D01*
X0064296Y0024818D01*
X0064414Y0024923D01*
X0064535Y0025025D01*
X0064658Y0025125D01*
X0064784Y0025221D01*
X0064912Y0025314D01*
X0065042Y0025404D01*
X0065175Y0025490D01*
X0065310Y0025574D01*
X0065446Y0025653D01*
X0065585Y0025730D01*
X0065726Y0025802D01*
X0065868Y0025872D01*
X0066012Y0025937D01*
X0066158Y0025999D01*
X0066305Y0026057D01*
X0066454Y0026112D01*
X0066604Y0026163D01*
X0066755Y0026210D01*
X0066907Y0026253D01*
X0067060Y0026292D01*
X0067215Y0026328D01*
X0067370Y0026359D01*
X0067526Y0026387D01*
X0067682Y0026411D01*
X0067839Y0026431D01*
X0067997Y0026447D01*
X0068154Y0026459D01*
X0068313Y0026467D01*
X0068471Y0026471D01*
X0068629Y0026471D01*
X0068787Y0026467D01*
X0068946Y0026459D01*
X0069103Y0026447D01*
X0069261Y0026431D01*
X0069418Y0026411D01*
X0069574Y0026387D01*
X0069730Y0026359D01*
X0069885Y0026328D01*
X0070040Y0026292D01*
X0070193Y0026253D01*
X0070345Y0026210D01*
X0070496Y0026163D01*
X0070646Y0026112D01*
X0070795Y0026057D01*
X0070942Y0025999D01*
X0071088Y0025937D01*
X0071232Y0025872D01*
X0071374Y0025802D01*
X0071515Y0025730D01*
X0071654Y0025653D01*
X0071790Y0025574D01*
X0071925Y0025490D01*
X0072058Y0025404D01*
X0072188Y0025314D01*
X0072316Y0025221D01*
X0072442Y0025125D01*
X0072565Y0025025D01*
X0072686Y0024923D01*
X0072804Y0024818D01*
X0072919Y0024709D01*
X0073032Y0024598D01*
X0073142Y0024484D01*
X0073249Y0024367D01*
X0073353Y0024248D01*
X0073454Y0024126D01*
X0073551Y0024001D01*
X0073646Y0023874D01*
X0073737Y0023745D01*
X0073826Y0023614D01*
X0073910Y0023480D01*
X0073992Y0023344D01*
X0074070Y0023207D01*
X0074144Y0023067D01*
X0074215Y0022925D01*
X0074283Y0022782D01*
X0074347Y0022637D01*
X0074407Y0022491D01*
X0074463Y0022343D01*
X0074516Y0022194D01*
X0074565Y0022043D01*
X0074610Y0021891D01*
X0074651Y0021738D01*
X0074689Y0021585D01*
X0074722Y0021430D01*
X0074752Y0021274D01*
X0074778Y0021118D01*
X0074799Y0020961D01*
X0074817Y0020804D01*
X0074831Y0020646D01*
X0074841Y0020488D01*
X0074847Y0020330D01*
X0074849Y0020172D01*
X0074847Y0020014D01*
X0074841Y0019856D01*
X0074831Y0019698D01*
X0074817Y0019540D01*
X0074799Y0019383D01*
X0074778Y0019226D01*
X0074752Y0019070D01*
X0074722Y0018914D01*
X0074689Y0018759D01*
X0074651Y0018606D01*
X0074610Y0018453D01*
X0074565Y0018301D01*
X0074516Y0018150D01*
X0074463Y0018001D01*
X0074407Y0017853D01*
X0074347Y0017707D01*
X0074283Y0017562D01*
X0074215Y0017419D01*
X0074144Y0017277D01*
X0074070Y0017137D01*
X0073992Y0017000D01*
X0073910Y0016864D01*
X0073826Y0016730D01*
X0073737Y0016599D01*
X0073646Y0016470D01*
X0073551Y0016343D01*
X0073454Y0016218D01*
X0073353Y0016096D01*
X0073249Y0015977D01*
X0073142Y0015860D01*
X0073032Y0015746D01*
X0072919Y0015635D01*
X0072804Y0015526D01*
X0072686Y0015421D01*
X0072565Y0015319D01*
X0072442Y0015219D01*
X0072316Y0015123D01*
X0072188Y0015030D01*
X0072058Y0014940D01*
X0071925Y0014854D01*
X0071790Y0014770D01*
X0071654Y0014691D01*
X0071515Y0014614D01*
X0071374Y0014542D01*
X0071232Y0014472D01*
X0071088Y0014407D01*
X0070942Y0014345D01*
X0070795Y0014287D01*
X0070646Y0014232D01*
X0070496Y0014181D01*
X0070345Y0014134D01*
X0070193Y0014091D01*
X0070040Y0014052D01*
X0069885Y0014016D01*
X0069730Y0013985D01*
X0069574Y0013957D01*
X0069418Y0013933D01*
X0069261Y0013913D01*
X0069103Y0013897D01*
X0068946Y0013885D01*
X0068787Y0013877D01*
X0068629Y0013873D01*
X0068471Y0013873D01*
X0068313Y0013877D01*
X0068154Y0013885D01*
X0067997Y0013897D01*
X0067839Y0013913D01*
X0067682Y0013933D01*
X0067526Y0013957D01*
X0067370Y0013985D01*
X0067215Y0014016D01*
X0067060Y0014052D01*
X0066907Y0014091D01*
X0066755Y0014134D01*
X0066604Y0014181D01*
X0066454Y0014232D01*
X0066305Y0014287D01*
X0066158Y0014345D01*
X0066012Y0014407D01*
X0065868Y0014472D01*
X0065726Y0014542D01*
X0065585Y0014614D01*
X0065446Y0014691D01*
X0065310Y0014770D01*
X0065175Y0014854D01*
X0065042Y0014940D01*
X0064912Y0015030D01*
X0064784Y0015123D01*
X0064658Y0015219D01*
X0064535Y0015319D01*
X0064414Y0015421D01*
X0064296Y0015526D01*
X0064181Y0015635D01*
X0064068Y0015746D01*
X0063958Y0015860D01*
X0063851Y0015977D01*
X0063747Y0016096D01*
X0063646Y0016218D01*
X0063549Y0016343D01*
X0063454Y0016470D01*
X0063363Y0016599D01*
X0063274Y0016730D01*
X0063190Y0016864D01*
X0063108Y0017000D01*
X0063030Y0017137D01*
X0062956Y0017277D01*
X0062885Y0017419D01*
X0062817Y0017562D01*
X0062753Y0017707D01*
X0062693Y0017853D01*
X0062637Y0018001D01*
X0062584Y0018150D01*
X0062535Y0018301D01*
X0062490Y0018453D01*
X0062449Y0018606D01*
X0062411Y0018759D01*
X0062378Y0018914D01*
X0062348Y0019070D01*
X0062322Y0019226D01*
X0062301Y0019383D01*
X0062283Y0019540D01*
X0062269Y0019698D01*
X0062259Y0019856D01*
X0062253Y0020014D01*
X0062251Y0020172D01*
X0072504Y0030425D02*
X0072506Y0030583D01*
X0072512Y0030741D01*
X0072522Y0030899D01*
X0072536Y0031057D01*
X0072554Y0031214D01*
X0072575Y0031371D01*
X0072601Y0031527D01*
X0072631Y0031683D01*
X0072664Y0031838D01*
X0072702Y0031991D01*
X0072743Y0032144D01*
X0072788Y0032296D01*
X0072837Y0032447D01*
X0072890Y0032596D01*
X0072946Y0032744D01*
X0073006Y0032890D01*
X0073070Y0033035D01*
X0073138Y0033178D01*
X0073209Y0033320D01*
X0073283Y0033460D01*
X0073361Y0033597D01*
X0073443Y0033733D01*
X0073527Y0033867D01*
X0073616Y0033998D01*
X0073707Y0034127D01*
X0073802Y0034254D01*
X0073899Y0034379D01*
X0074000Y0034501D01*
X0074104Y0034620D01*
X0074211Y0034737D01*
X0074321Y0034851D01*
X0074434Y0034962D01*
X0074549Y0035071D01*
X0074667Y0035176D01*
X0074788Y0035278D01*
X0074911Y0035378D01*
X0075037Y0035474D01*
X0075165Y0035567D01*
X0075295Y0035657D01*
X0075428Y0035743D01*
X0075563Y0035827D01*
X0075699Y0035906D01*
X0075838Y0035983D01*
X0075979Y0036055D01*
X0076121Y0036125D01*
X0076265Y0036190D01*
X0076411Y0036252D01*
X0076558Y0036310D01*
X0076707Y0036365D01*
X0076857Y0036416D01*
X0077008Y0036463D01*
X0077160Y0036506D01*
X0077313Y0036545D01*
X0077468Y0036581D01*
X0077623Y0036612D01*
X0077779Y0036640D01*
X0077935Y0036664D01*
X0078092Y0036684D01*
X0078250Y0036700D01*
X0078407Y0036712D01*
X0078566Y0036720D01*
X0078724Y0036724D01*
X0078882Y0036724D01*
X0079040Y0036720D01*
X0079199Y0036712D01*
X0079356Y0036700D01*
X0079514Y0036684D01*
X0079671Y0036664D01*
X0079827Y0036640D01*
X0079983Y0036612D01*
X0080138Y0036581D01*
X0080293Y0036545D01*
X0080446Y0036506D01*
X0080598Y0036463D01*
X0080749Y0036416D01*
X0080899Y0036365D01*
X0081048Y0036310D01*
X0081195Y0036252D01*
X0081341Y0036190D01*
X0081485Y0036125D01*
X0081627Y0036055D01*
X0081768Y0035983D01*
X0081907Y0035906D01*
X0082043Y0035827D01*
X0082178Y0035743D01*
X0082311Y0035657D01*
X0082441Y0035567D01*
X0082569Y0035474D01*
X0082695Y0035378D01*
X0082818Y0035278D01*
X0082939Y0035176D01*
X0083057Y0035071D01*
X0083172Y0034962D01*
X0083285Y0034851D01*
X0083395Y0034737D01*
X0083502Y0034620D01*
X0083606Y0034501D01*
X0083707Y0034379D01*
X0083804Y0034254D01*
X0083899Y0034127D01*
X0083990Y0033998D01*
X0084079Y0033867D01*
X0084163Y0033733D01*
X0084245Y0033597D01*
X0084323Y0033460D01*
X0084397Y0033320D01*
X0084468Y0033178D01*
X0084536Y0033035D01*
X0084600Y0032890D01*
X0084660Y0032744D01*
X0084716Y0032596D01*
X0084769Y0032447D01*
X0084818Y0032296D01*
X0084863Y0032144D01*
X0084904Y0031991D01*
X0084942Y0031838D01*
X0084975Y0031683D01*
X0085005Y0031527D01*
X0085031Y0031371D01*
X0085052Y0031214D01*
X0085070Y0031057D01*
X0085084Y0030899D01*
X0085094Y0030741D01*
X0085100Y0030583D01*
X0085102Y0030425D01*
X0085100Y0030267D01*
X0085094Y0030109D01*
X0085084Y0029951D01*
X0085070Y0029793D01*
X0085052Y0029636D01*
X0085031Y0029479D01*
X0085005Y0029323D01*
X0084975Y0029167D01*
X0084942Y0029012D01*
X0084904Y0028859D01*
X0084863Y0028706D01*
X0084818Y0028554D01*
X0084769Y0028403D01*
X0084716Y0028254D01*
X0084660Y0028106D01*
X0084600Y0027960D01*
X0084536Y0027815D01*
X0084468Y0027672D01*
X0084397Y0027530D01*
X0084323Y0027390D01*
X0084245Y0027253D01*
X0084163Y0027117D01*
X0084079Y0026983D01*
X0083990Y0026852D01*
X0083899Y0026723D01*
X0083804Y0026596D01*
X0083707Y0026471D01*
X0083606Y0026349D01*
X0083502Y0026230D01*
X0083395Y0026113D01*
X0083285Y0025999D01*
X0083172Y0025888D01*
X0083057Y0025779D01*
X0082939Y0025674D01*
X0082818Y0025572D01*
X0082695Y0025472D01*
X0082569Y0025376D01*
X0082441Y0025283D01*
X0082311Y0025193D01*
X0082178Y0025107D01*
X0082043Y0025023D01*
X0081907Y0024944D01*
X0081768Y0024867D01*
X0081627Y0024795D01*
X0081485Y0024725D01*
X0081341Y0024660D01*
X0081195Y0024598D01*
X0081048Y0024540D01*
X0080899Y0024485D01*
X0080749Y0024434D01*
X0080598Y0024387D01*
X0080446Y0024344D01*
X0080293Y0024305D01*
X0080138Y0024269D01*
X0079983Y0024238D01*
X0079827Y0024210D01*
X0079671Y0024186D01*
X0079514Y0024166D01*
X0079356Y0024150D01*
X0079199Y0024138D01*
X0079040Y0024130D01*
X0078882Y0024126D01*
X0078724Y0024126D01*
X0078566Y0024130D01*
X0078407Y0024138D01*
X0078250Y0024150D01*
X0078092Y0024166D01*
X0077935Y0024186D01*
X0077779Y0024210D01*
X0077623Y0024238D01*
X0077468Y0024269D01*
X0077313Y0024305D01*
X0077160Y0024344D01*
X0077008Y0024387D01*
X0076857Y0024434D01*
X0076707Y0024485D01*
X0076558Y0024540D01*
X0076411Y0024598D01*
X0076265Y0024660D01*
X0076121Y0024725D01*
X0075979Y0024795D01*
X0075838Y0024867D01*
X0075699Y0024944D01*
X0075563Y0025023D01*
X0075428Y0025107D01*
X0075295Y0025193D01*
X0075165Y0025283D01*
X0075037Y0025376D01*
X0074911Y0025472D01*
X0074788Y0025572D01*
X0074667Y0025674D01*
X0074549Y0025779D01*
X0074434Y0025888D01*
X0074321Y0025999D01*
X0074211Y0026113D01*
X0074104Y0026230D01*
X0074000Y0026349D01*
X0073899Y0026471D01*
X0073802Y0026596D01*
X0073707Y0026723D01*
X0073616Y0026852D01*
X0073527Y0026983D01*
X0073443Y0027117D01*
X0073361Y0027253D01*
X0073283Y0027390D01*
X0073209Y0027530D01*
X0073138Y0027672D01*
X0073070Y0027815D01*
X0073006Y0027960D01*
X0072946Y0028106D01*
X0072890Y0028254D01*
X0072837Y0028403D01*
X0072788Y0028554D01*
X0072743Y0028706D01*
X0072702Y0028859D01*
X0072664Y0029012D01*
X0072631Y0029167D01*
X0072601Y0029323D01*
X0072575Y0029479D01*
X0072554Y0029636D01*
X0072536Y0029793D01*
X0072522Y0029951D01*
X0072512Y0030109D01*
X0072506Y0030267D01*
X0072504Y0030425D01*
D11*
X0000000Y0050000D02*
X0000015Y0051227D01*
X0000060Y0052453D01*
X0000135Y0053678D01*
X0000241Y0054901D01*
X0000376Y0056121D01*
X0000541Y0057337D01*
X0000736Y0058548D01*
X0000961Y0059755D01*
X0001215Y0060955D01*
X0001498Y0062149D01*
X0001811Y0063336D01*
X0002153Y0064514D01*
X0002524Y0065684D01*
X0002923Y0066844D01*
X0003350Y0067995D01*
X0003806Y0069134D01*
X0004290Y0070262D01*
X0004801Y0071378D01*
X0005339Y0072481D01*
X0005904Y0073570D01*
X0006496Y0074645D01*
X0007114Y0075705D01*
X0007757Y0076750D01*
X0008427Y0077779D01*
X0009121Y0078790D01*
X0009840Y0079785D01*
X0010583Y0080762D01*
X0011349Y0081720D01*
X0012140Y0082659D01*
X0012952Y0083578D01*
X0013788Y0084477D01*
X0014645Y0085355D01*
X0015523Y0086212D01*
X0016422Y0087048D01*
X0017341Y0087860D01*
X0018280Y0088651D01*
X0019238Y0089417D01*
X0020215Y0090160D01*
X0021210Y0090879D01*
X0022221Y0091573D01*
X0023250Y0092243D01*
X0024295Y0092886D01*
X0025355Y0093504D01*
X0026430Y0094096D01*
X0027519Y0094661D01*
X0028622Y0095199D01*
X0029738Y0095710D01*
X0030866Y0096194D01*
X0032005Y0096650D01*
X0033156Y0097077D01*
X0034316Y0097476D01*
X0035486Y0097847D01*
X0036664Y0098189D01*
X0037851Y0098502D01*
X0039045Y0098785D01*
X0040245Y0099039D01*
X0041452Y0099264D01*
X0042663Y0099459D01*
X0043879Y0099624D01*
X0045099Y0099759D01*
X0046322Y0099865D01*
X0047547Y0099940D01*
X0048773Y0099985D01*
X0050000Y0100000D01*
X0051227Y0099985D01*
X0052453Y0099940D01*
X0053678Y0099865D01*
X0054901Y0099759D01*
X0056121Y0099624D01*
X0057337Y0099459D01*
X0058548Y0099264D01*
X0059755Y0099039D01*
X0060955Y0098785D01*
X0062149Y0098502D01*
X0063336Y0098189D01*
X0064514Y0097847D01*
X0065684Y0097476D01*
X0066844Y0097077D01*
X0067995Y0096650D01*
X0069134Y0096194D01*
X0070262Y0095710D01*
X0071378Y0095199D01*
X0072481Y0094661D01*
X0073570Y0094096D01*
X0074645Y0093504D01*
X0075705Y0092886D01*
X0076750Y0092243D01*
X0077779Y0091573D01*
X0078790Y0090879D01*
X0079785Y0090160D01*
X0080762Y0089417D01*
X0081720Y0088651D01*
X0082659Y0087860D01*
X0083578Y0087048D01*
X0084477Y0086212D01*
X0085355Y0085355D01*
X0086212Y0084477D01*
X0087048Y0083578D01*
X0087860Y0082659D01*
X0088651Y0081720D01*
X0089417Y0080762D01*
X0090160Y0079785D01*
X0090879Y0078790D01*
X0091573Y0077779D01*
X0092243Y0076750D01*
X0092886Y0075705D01*
X0093504Y0074645D01*
X0094096Y0073570D01*
X0094661Y0072481D01*
X0095199Y0071378D01*
X0095710Y0070262D01*
X0096194Y0069134D01*
X0096650Y0067995D01*
X0097077Y0066844D01*
X0097476Y0065684D01*
X0097847Y0064514D01*
X0098189Y0063336D01*
X0098502Y0062149D01*
X0098785Y0060955D01*
X0099039Y0059755D01*
X0099264Y0058548D01*
X0099459Y0057337D01*
X0099624Y0056121D01*
X0099759Y0054901D01*
X0099865Y0053678D01*
X0099940Y0052453D01*
X0099985Y0051227D01*
X0100000Y0050000D01*
X0099985Y0048773D01*
X0099940Y0047547D01*
X0099865Y0046322D01*
X0099759Y0045099D01*
X0099624Y0043879D01*
X0099459Y0042663D01*
X0099264Y0041452D01*
X0099039Y0040245D01*
X0098785Y0039045D01*
X0098502Y0037851D01*
X0098189Y0036664D01*
X0097847Y0035486D01*
X0097476Y0034316D01*
X0097077Y0033156D01*
X0096650Y0032005D01*
X0096194Y0030866D01*
X0095710Y0029738D01*
X0095199Y0028622D01*
X0094661Y0027519D01*
X0094096Y0026430D01*
X0093504Y0025355D01*
X0092886Y0024295D01*
X0092243Y0023250D01*
X0091573Y0022221D01*
X0090879Y0021210D01*
X0090160Y0020215D01*
X0089417Y0019238D01*
X0088651Y0018280D01*
X0087860Y0017341D01*
X0087048Y0016422D01*
X0086212Y0015523D01*
X0085355Y0014645D01*
X0084477Y0013788D01*
X0083578Y0012952D01*
X0082659Y0012140D01*
X0081720Y0011349D01*
X0080762Y0010583D01*
X0079785Y0009840D01*
X0078790Y0009121D01*
X0077779Y0008427D01*
X0076750Y0007757D01*
X0075705Y0007114D01*
X0074645Y0006496D01*
X0073570Y0005904D01*
X0072481Y0005339D01*
X0071378Y0004801D01*
X0070262Y0004290D01*
X0069134Y0003806D01*
X0067995Y0003350D01*
X0066844Y0002923D01*
X0065684Y0002524D01*
X0064514Y0002153D01*
X0063336Y0001811D01*
X0062149Y0001498D01*
X0060955Y0001215D01*
X0059755Y0000961D01*
X0058548Y0000736D01*
X0057337Y0000541D01*
X0056121Y0000376D01*
X0054901Y0000241D01*
X0053678Y0000135D01*
X0052453Y0000060D01*
X0051227Y0000015D01*
X0050000Y0000000D01*
X0048773Y0000015D01*
X0047547Y0000060D01*
X0046322Y0000135D01*
X0045099Y0000241D01*
X0043879Y0000376D01*
X0042663Y0000541D01*
X0041452Y0000736D01*
X0040245Y0000961D01*
X0039045Y0001215D01*
X0037851Y0001498D01*
X0036664Y0001811D01*
X0035486Y0002153D01*
X0034316Y0002524D01*
X0033156Y0002923D01*
X0032005Y0003350D01*
X0030866Y0003806D01*
X0029738Y0004290D01*
X0028622Y0004801D01*
X0027519Y0005339D01*
X0026430Y0005904D01*
X0025355Y0006496D01*
X0024295Y0007114D01*
X0023250Y0007757D01*
X0022221Y0008427D01*
X0021210Y0009121D01*
X0020215Y0009840D01*
X0019238Y0010583D01*
X0018280Y0011349D01*
X0017341Y0012140D01*
X0016422Y0012952D01*
X0015523Y0013788D01*
X0014645Y0014645D01*
X0013788Y0015523D01*
X0012952Y0016422D01*
X0012140Y0017341D01*
X0011349Y0018280D01*
X0010583Y0019238D01*
X0009840Y0020215D01*
X0009121Y0021210D01*
X0008427Y0022221D01*
X0007757Y0023250D01*
X0007114Y0024295D01*
X0006496Y0025355D01*
X0005904Y0026430D01*
X0005339Y0027519D01*
X0004801Y0028622D01*
X0004290Y0029738D01*
X0003806Y0030866D01*
X0003350Y0032005D01*
X0002923Y0033156D01*
X0002524Y0034316D01*
X0002153Y0035486D01*
X0001811Y0036664D01*
X0001498Y0037851D01*
X0001215Y0039045D01*
X0000961Y0040245D01*
X0000736Y0041452D01*
X0000541Y0042663D01*
X0000376Y0043879D01*
X0000241Y0045099D01*
X0000135Y0046322D01*
X0000060Y0047547D01*
X0000015Y0048773D01*
X0000000Y0050000D01*
M02*
