G75*
%MOIN*%
%OFA0B0*%
%FSLAX25Y25*%
%IPPOS*%
%LPD*%
%AMOC8*
5,1,8,0,0,1.08239X$1,22.5*
%
%ADD10R,0.05118X0.05906*%
%ADD11R,0.04803X0.02441*%
%ADD12R,0.03543X0.02756*%
%ADD13R,0.02756X0.03543*%
%ADD14R,0.05512X0.05512*%
%ADD15R,0.09843X0.05512*%
%ADD16R,0.11811X0.06693*%
%ADD17R,0.11811X0.03150*%
%ADD18C,0.05906*%
%ADD19R,0.03898X0.02717*%
%ADD20C,0.01000*%
%ADD21C,0.01600*%
%ADD22C,0.03762*%
D10*
X0019510Y0057500D03*
X0026990Y0057500D03*
X0081740Y0042500D03*
X0074260Y0042500D03*
D11*
X0043843Y0084740D03*
X0043843Y0081000D03*
X0043843Y0077260D03*
X0054157Y0077260D03*
X0054157Y0084740D03*
X0054157Y0081000D03*
D12*
X0061500Y0071941D03*
X0061500Y0077059D03*
X0037000Y0081059D03*
X0037000Y0075941D03*
D13*
X0048941Y0072000D03*
X0054059Y0072000D03*
X0046941Y0092000D03*
X0052059Y0092000D03*
D14*
X0018579Y0067020D03*
X0028421Y0067020D03*
D15*
X0023500Y0080799D03*
D16*
X0040000Y0057441D03*
X0040000Y0042559D03*
X0060000Y0057441D03*
X0060000Y0042559D03*
D17*
X0040000Y0064331D03*
X0040000Y0035669D03*
X0060000Y0064331D03*
X0060000Y0035669D03*
D18*
X0054500Y0022453D02*
X0054500Y0016547D01*
X0044500Y0016547D02*
X0044500Y0022453D01*
D19*
X0019382Y0033740D03*
X0019382Y0030000D03*
X0019382Y0026260D03*
X0029618Y0026260D03*
X0029618Y0030000D03*
X0029618Y0033740D03*
X0081618Y0066760D03*
X0081618Y0070500D03*
X0081618Y0074240D03*
X0071382Y0074240D03*
X0071382Y0070500D03*
X0071382Y0066760D03*
D20*
X0043843Y0081059D02*
X0037000Y0081059D01*
X0046941Y0092000D02*
X0043000Y0092000D01*
X0043000Y0088000D01*
X0048000Y0088000D01*
X0048000Y0081000D01*
X0043843Y0081000D01*
X0048941Y0072000D02*
X0048941Y0078500D01*
X0048000Y0078500D01*
X0048000Y0081000D01*
X0048941Y0072000D02*
X0048941Y0068000D01*
X0065000Y0068000D01*
X0065000Y0074240D01*
X0071382Y0074240D01*
X0029618Y0026260D02*
X0029500Y0026260D01*
X0052059Y0092000D02*
X0056500Y0092000D01*
X0056500Y0088000D01*
X0050000Y0088000D01*
X0050000Y0081000D01*
X0054157Y0081000D01*
X0061500Y0081000D01*
X0061500Y0081300D01*
X0028421Y0067020D02*
X0040000Y0067020D01*
X0040000Y0064331D01*
X0021500Y0060500D02*
X0021500Y0038000D01*
X0032500Y0038000D01*
X0032500Y0029000D01*
X0011900Y0029000D01*
X0011900Y0060500D01*
X0021500Y0060500D01*
X0011900Y0029955D02*
X0032500Y0029955D01*
X0032500Y0030954D02*
X0011900Y0030954D01*
X0011900Y0031952D02*
X0032500Y0031952D01*
X0032500Y0032951D02*
X0011900Y0032951D01*
X0011900Y0033949D02*
X0032500Y0033949D01*
X0032500Y0034948D02*
X0011900Y0034948D01*
X0011900Y0035946D02*
X0032500Y0035946D01*
X0032500Y0036945D02*
X0011900Y0036945D01*
X0011900Y0037943D02*
X0032500Y0037943D01*
X0021500Y0038942D02*
X0011900Y0038942D01*
X0011900Y0039940D02*
X0021500Y0039940D01*
X0021500Y0040939D02*
X0011900Y0040939D01*
X0011900Y0041937D02*
X0021500Y0041937D01*
X0021500Y0042936D02*
X0011900Y0042936D01*
X0011900Y0043934D02*
X0021500Y0043934D01*
X0021500Y0044933D02*
X0011900Y0044933D01*
X0011900Y0045932D02*
X0021500Y0045932D01*
X0021500Y0046930D02*
X0011900Y0046930D01*
X0011900Y0047929D02*
X0021500Y0047929D01*
X0021500Y0048927D02*
X0011900Y0048927D01*
X0011900Y0049926D02*
X0021500Y0049926D01*
X0021500Y0050924D02*
X0011900Y0050924D01*
X0011900Y0051923D02*
X0021500Y0051923D01*
X0021500Y0052921D02*
X0011900Y0052921D01*
X0011900Y0053920D02*
X0021500Y0053920D01*
X0021500Y0054918D02*
X0011900Y0054918D01*
X0011900Y0055917D02*
X0021500Y0055917D01*
X0021500Y0056915D02*
X0011900Y0056915D01*
X0011900Y0057914D02*
X0021500Y0057914D01*
X0021500Y0058912D02*
X0011900Y0058912D01*
X0011900Y0059911D02*
X0021500Y0059911D01*
X0054157Y0077260D02*
X0054157Y0072000D01*
X0061500Y0072000D01*
X0061500Y0071941D01*
X0043843Y0077260D02*
X0043843Y0072500D01*
X0037000Y0072500D01*
X0037000Y0075941D01*
X0088000Y0040000D02*
X0079500Y0040000D01*
X0079500Y0062000D01*
X0068000Y0062000D01*
X0068000Y0071500D01*
X0088000Y0071500D01*
X0088000Y0040000D01*
X0088000Y0040939D02*
X0079500Y0040939D01*
X0079500Y0041937D02*
X0088000Y0041937D01*
X0088000Y0042936D02*
X0079500Y0042936D01*
X0079500Y0043934D02*
X0088000Y0043934D01*
X0088000Y0044933D02*
X0079500Y0044933D01*
X0079500Y0045932D02*
X0088000Y0045932D01*
X0088000Y0046930D02*
X0079500Y0046930D01*
X0079500Y0047929D02*
X0088000Y0047929D01*
X0088000Y0048927D02*
X0079500Y0048927D01*
X0079500Y0049926D02*
X0088000Y0049926D01*
X0088000Y0050924D02*
X0079500Y0050924D01*
X0079500Y0051923D02*
X0088000Y0051923D01*
X0088000Y0052921D02*
X0079500Y0052921D01*
X0079500Y0053920D02*
X0088000Y0053920D01*
X0088000Y0054918D02*
X0079500Y0054918D01*
X0079500Y0055917D02*
X0088000Y0055917D01*
X0088000Y0056915D02*
X0079500Y0056915D01*
X0079500Y0057914D02*
X0088000Y0057914D01*
X0088000Y0058912D02*
X0079500Y0058912D01*
X0079500Y0059911D02*
X0088000Y0059911D01*
X0088000Y0060909D02*
X0079500Y0060909D01*
X0079500Y0061908D02*
X0088000Y0061908D01*
X0088000Y0062906D02*
X0068000Y0062906D01*
X0068000Y0063905D02*
X0088000Y0063905D01*
X0088000Y0064903D02*
X0068000Y0064903D01*
X0068000Y0065902D02*
X0088000Y0065902D01*
X0088000Y0066900D02*
X0068000Y0066900D01*
X0068000Y0067899D02*
X0088000Y0067899D01*
X0088000Y0068897D02*
X0068000Y0068897D01*
X0068000Y0069896D02*
X0088000Y0069896D01*
X0088000Y0070894D02*
X0068000Y0070894D01*
D21*
X0043843Y0081000D02*
X0043843Y0081059D01*
X0037000Y0081059D02*
X0032000Y0081059D01*
X0032000Y0075000D01*
X0018579Y0075000D01*
X0018579Y0067020D01*
X0010000Y0067020D01*
X0010000Y0027000D01*
X0016000Y0027000D01*
X0016000Y0018500D01*
X0029500Y0018500D01*
X0029500Y0026260D01*
X0054500Y0019500D02*
X0054500Y0011000D01*
X0029500Y0011000D01*
X0029500Y0018500D01*
X0074731Y0076178D02*
X0073911Y0076998D01*
X0068853Y0076998D01*
X0068033Y0076178D01*
X0068033Y0076140D01*
X0064213Y0076140D01*
X0063100Y0075027D01*
X0063100Y0074719D01*
X0059148Y0074719D01*
X0058330Y0073900D01*
X0056837Y0073900D01*
X0056837Y0074352D01*
X0056549Y0074639D01*
X0057139Y0074639D01*
X0057959Y0075459D01*
X0057959Y0079060D01*
X0057139Y0079880D01*
X0051176Y0079880D01*
X0050712Y0079416D01*
X0049900Y0080228D01*
X0049900Y0088787D01*
X0049379Y0089308D01*
X0049719Y0089648D01*
X0049719Y0094352D01*
X0048899Y0095172D01*
X0044983Y0095172D01*
X0044163Y0094352D01*
X0044163Y0093900D01*
X0042213Y0093900D01*
X0041100Y0092787D01*
X0041100Y0087361D01*
X0040861Y0087361D01*
X0040441Y0086940D01*
X0026530Y0086940D01*
X0024545Y0084955D01*
X0019738Y0084955D01*
X0022409Y0087305D01*
X0029111Y0091432D01*
X0036413Y0094366D01*
X0044106Y0096024D01*
X0051969Y0096358D01*
X0059776Y0095359D01*
X0067301Y0093054D01*
X0074328Y0089511D01*
X0080655Y0084831D01*
X0086101Y0079149D01*
X0090508Y0072629D01*
X0093750Y0065458D01*
X0093750Y0065458D01*
X0095733Y0057842D01*
X0096400Y0050000D01*
X0095733Y0042158D01*
X0093750Y0034542D01*
X0090508Y0027371D01*
X0086101Y0020851D01*
X0080655Y0015169D01*
X0074328Y0010489D01*
X0067301Y0006946D01*
X0059776Y0004641D01*
X0051969Y0003642D01*
X0044106Y0003976D01*
X0036413Y0005634D01*
X0029111Y0008568D01*
X0028734Y0008800D01*
X0055411Y0008800D01*
X0056700Y0010089D01*
X0056700Y0012747D01*
X0056966Y0012857D01*
X0058190Y0014082D01*
X0058853Y0015681D01*
X0058853Y0023319D01*
X0058190Y0024918D01*
X0056966Y0026143D01*
X0055366Y0026805D01*
X0053634Y0026805D01*
X0052034Y0026143D01*
X0050810Y0024918D01*
X0050147Y0023319D01*
X0050147Y0015681D01*
X0050810Y0014082D01*
X0051692Y0013200D01*
X0031700Y0013200D01*
X0031700Y0023502D01*
X0032147Y0023502D01*
X0032967Y0024322D01*
X0032967Y0027100D01*
X0033287Y0027100D01*
X0034400Y0028213D01*
X0034400Y0037800D01*
X0049411Y0037800D01*
X0049750Y0038139D01*
X0050089Y0037800D01*
X0073310Y0037800D01*
X0071089Y0035579D01*
X0069704Y0032235D01*
X0069704Y0029271D01*
X0066740Y0029271D01*
X0063396Y0027885D01*
X0060836Y0025326D01*
X0059451Y0021982D01*
X0059451Y0018362D01*
X0060836Y0015017D01*
X0063396Y0012458D01*
X0066740Y0011072D01*
X0070360Y0011072D01*
X0073705Y0012458D01*
X0076264Y0015017D01*
X0077649Y0018362D01*
X0077649Y0021325D01*
X0080613Y0021325D01*
X0083958Y0022711D01*
X0086517Y0025270D01*
X0087902Y0028615D01*
X0087902Y0032235D01*
X0086517Y0035579D01*
X0083996Y0038100D01*
X0088787Y0038100D01*
X0089900Y0039213D01*
X0089900Y0072287D01*
X0088787Y0073400D01*
X0084967Y0073400D01*
X0084967Y0076178D01*
X0084347Y0076799D01*
X0084781Y0077847D01*
X0084781Y0079153D01*
X0084282Y0080359D01*
X0083359Y0081282D01*
X0082153Y0081781D01*
X0080847Y0081781D01*
X0079641Y0081282D01*
X0078718Y0080359D01*
X0078219Y0079153D01*
X0078219Y0077847D01*
X0078718Y0076641D01*
X0078725Y0076634D01*
X0078269Y0076178D01*
X0078269Y0073400D01*
X0074731Y0073400D01*
X0074731Y0076178D01*
X0057139Y0087361D02*
X0051176Y0087361D01*
X0050356Y0086541D01*
X0050356Y0082940D01*
X0051176Y0082120D01*
X0057139Y0082120D01*
X0057559Y0082540D01*
X0063053Y0082540D01*
X0063218Y0082141D01*
X0064141Y0081218D01*
X0065347Y0080719D01*
X0066653Y0080719D01*
X0067859Y0081218D01*
X0068782Y0082141D01*
X0069281Y0083347D01*
X0069281Y0084653D01*
X0068782Y0085859D01*
X0067859Y0086782D01*
X0066653Y0087281D01*
X0065347Y0087281D01*
X0064524Y0086940D01*
X0057559Y0086940D01*
X0057139Y0087361D01*
X0050089Y0062200D02*
X0049750Y0061861D01*
X0049411Y0062200D01*
X0024089Y0062200D01*
X0023288Y0061399D01*
X0022287Y0062400D01*
X0012200Y0062400D01*
X0012200Y0064820D01*
X0014423Y0064820D01*
X0014423Y0063684D01*
X0015243Y0062864D01*
X0021915Y0062864D01*
X0022735Y0063684D01*
X0022735Y0070355D01*
X0021915Y0071176D01*
X0020779Y0071176D01*
X0020779Y0072800D01*
X0032911Y0072800D01*
X0033961Y0073850D01*
X0034648Y0073163D01*
X0035100Y0073163D01*
X0035100Y0071713D01*
X0036213Y0070600D01*
X0044630Y0070600D01*
X0045743Y0071713D01*
X0045743Y0074639D01*
X0046451Y0074639D01*
X0046163Y0074352D01*
X0046163Y0069648D01*
X0046983Y0068828D01*
X0047041Y0068828D01*
X0047041Y0067213D01*
X0048154Y0066100D01*
X0065787Y0066100D01*
X0066100Y0066413D01*
X0066100Y0062200D01*
X0050089Y0062200D01*
X0040303Y0004796D02*
X0060279Y0004796D01*
X0065498Y0006394D02*
X0034521Y0006394D01*
X0030543Y0007993D02*
X0069376Y0007993D01*
X0072547Y0009591D02*
X0056202Y0009591D01*
X0056700Y0011190D02*
X0066457Y0011190D01*
X0070643Y0011190D02*
X0075275Y0011190D01*
X0063065Y0012788D02*
X0056799Y0012788D01*
X0074035Y0012788D02*
X0077436Y0012788D01*
X0050684Y0014387D02*
X0031700Y0014387D01*
X0058316Y0014387D02*
X0061467Y0014387D01*
X0075634Y0014387D02*
X0079598Y0014387D01*
X0050147Y0015985D02*
X0031700Y0015985D01*
X0058853Y0015985D02*
X0060435Y0015985D01*
X0076665Y0015985D02*
X0081438Y0015985D01*
X0050147Y0017584D02*
X0031700Y0017584D01*
X0058853Y0017584D02*
X0059773Y0017584D01*
X0077327Y0017584D02*
X0082970Y0017584D01*
X0050147Y0019182D02*
X0031700Y0019182D01*
X0058853Y0019182D02*
X0059451Y0019182D01*
X0077649Y0019182D02*
X0084502Y0019182D01*
X0050147Y0020781D02*
X0031700Y0020781D01*
X0058853Y0020781D02*
X0059451Y0020781D01*
X0077649Y0020781D02*
X0086034Y0020781D01*
X0050147Y0022379D02*
X0031700Y0022379D01*
X0058853Y0022379D02*
X0059616Y0022379D01*
X0083157Y0022379D02*
X0087134Y0022379D01*
X0050420Y0023978D02*
X0032623Y0023978D01*
X0058580Y0023978D02*
X0060278Y0023978D01*
X0085225Y0023978D02*
X0088214Y0023978D01*
X0051468Y0025576D02*
X0032967Y0025576D01*
X0057532Y0025576D02*
X0061087Y0025576D01*
X0086644Y0025576D02*
X0089295Y0025576D01*
X0062685Y0027175D02*
X0033362Y0027175D01*
X0087306Y0027175D02*
X0090375Y0027175D01*
X0065539Y0028773D02*
X0034400Y0028773D01*
X0087902Y0028773D02*
X0091142Y0028773D01*
X0069704Y0030372D02*
X0034400Y0030372D01*
X0087902Y0030372D02*
X0091864Y0030372D01*
X0069704Y0031970D02*
X0034400Y0031970D01*
X0087902Y0031970D02*
X0092587Y0031970D01*
X0070257Y0033569D02*
X0034400Y0033569D01*
X0087350Y0033569D02*
X0093309Y0033569D01*
X0070919Y0035167D02*
X0034400Y0035167D01*
X0086688Y0035167D02*
X0093912Y0035167D01*
X0072276Y0036766D02*
X0034400Y0036766D01*
X0085330Y0036766D02*
X0094328Y0036766D01*
X0094745Y0038364D02*
X0089051Y0038364D01*
X0089900Y0039963D02*
X0095161Y0039963D01*
X0095577Y0041561D02*
X0089900Y0041561D01*
X0089900Y0043160D02*
X0095818Y0043160D01*
X0095954Y0044758D02*
X0089900Y0044758D01*
X0089900Y0046357D02*
X0096090Y0046357D01*
X0096226Y0047955D02*
X0089900Y0047955D01*
X0089900Y0049554D02*
X0096362Y0049554D01*
X0096302Y0051152D02*
X0089900Y0051152D01*
X0089900Y0052751D02*
X0096166Y0052751D01*
X0096030Y0054349D02*
X0089900Y0054349D01*
X0089900Y0055948D02*
X0095894Y0055948D01*
X0095758Y0057546D02*
X0089900Y0057546D01*
X0089900Y0059145D02*
X0095393Y0059145D01*
X0094977Y0060743D02*
X0089900Y0060743D01*
X0066100Y0062342D02*
X0022345Y0062342D01*
X0089900Y0062342D02*
X0094561Y0062342D01*
X0014423Y0063940D02*
X0012200Y0063940D01*
X0022735Y0063940D02*
X0066100Y0063940D01*
X0089900Y0063940D02*
X0094145Y0063940D01*
X0066100Y0065539D02*
X0022735Y0065539D01*
X0089900Y0065539D02*
X0093713Y0065539D01*
X0047116Y0067137D02*
X0022735Y0067137D01*
X0089900Y0067137D02*
X0092990Y0067137D01*
X0047041Y0068736D02*
X0022735Y0068736D01*
X0089900Y0068736D02*
X0092268Y0068736D01*
X0046163Y0070334D02*
X0022735Y0070334D01*
X0089900Y0070334D02*
X0091545Y0070334D01*
X0035100Y0071933D02*
X0020779Y0071933D01*
X0045743Y0071933D02*
X0046163Y0071933D01*
X0089900Y0071933D02*
X0090822Y0071933D01*
X0034280Y0073532D02*
X0033643Y0073532D01*
X0045743Y0073532D02*
X0046163Y0073532D01*
X0074731Y0073532D02*
X0078269Y0073532D01*
X0084967Y0073532D02*
X0089898Y0073532D01*
X0063203Y0075130D02*
X0057630Y0075130D01*
X0074731Y0075130D02*
X0078269Y0075130D01*
X0084967Y0075130D02*
X0088817Y0075130D01*
X0068583Y0076729D02*
X0057959Y0076729D01*
X0074180Y0076729D02*
X0078682Y0076729D01*
X0084417Y0076729D02*
X0087737Y0076729D01*
X0078219Y0078327D02*
X0057959Y0078327D01*
X0084781Y0078327D02*
X0086657Y0078327D01*
X0078539Y0079926D02*
X0050202Y0079926D01*
X0084461Y0079926D02*
X0085357Y0079926D01*
X0063836Y0081524D02*
X0049900Y0081524D01*
X0068164Y0081524D02*
X0080227Y0081524D01*
X0082773Y0081524D02*
X0083825Y0081524D01*
X0050356Y0083123D02*
X0049900Y0083123D01*
X0069188Y0083123D02*
X0082293Y0083123D01*
X0050356Y0084721D02*
X0049900Y0084721D01*
X0069253Y0084721D02*
X0080761Y0084721D01*
X0025909Y0086320D02*
X0021289Y0086320D01*
X0049900Y0086320D02*
X0050356Y0086320D01*
X0068321Y0086320D02*
X0078643Y0086320D01*
X0041100Y0087918D02*
X0023404Y0087918D01*
X0049900Y0087918D02*
X0076481Y0087918D01*
X0041100Y0089517D02*
X0026000Y0089517D01*
X0049587Y0089517D02*
X0074317Y0089517D01*
X0041100Y0091115D02*
X0028596Y0091115D01*
X0049719Y0091115D02*
X0071146Y0091115D01*
X0041100Y0092714D02*
X0032301Y0092714D01*
X0049719Y0092714D02*
X0067976Y0092714D01*
X0044163Y0094312D02*
X0036279Y0094312D01*
X0049719Y0094312D02*
X0063192Y0094312D01*
X0055464Y0095911D02*
X0043580Y0095911D01*
X0061500Y0077059D02*
X0061500Y0081300D01*
X0060500Y0081400D01*
X0054157Y0084740D02*
X0065260Y0084740D01*
X0066000Y0084000D01*
X0021500Y0022000D02*
X0019382Y0022000D01*
X0019382Y0026260D01*
X0081500Y0078500D02*
X0081618Y0078500D01*
X0081618Y0074240D01*
X0048500Y0060000D02*
X0048500Y0040000D01*
X0025000Y0040000D01*
X0025000Y0060000D01*
X0048500Y0060000D01*
X0048500Y0041561D02*
X0025000Y0041561D01*
X0025000Y0043160D02*
X0048500Y0043160D01*
X0048500Y0044758D02*
X0025000Y0044758D01*
X0025000Y0046357D02*
X0048500Y0046357D01*
X0048500Y0047955D02*
X0025000Y0047955D01*
X0025000Y0049554D02*
X0048500Y0049554D01*
X0048500Y0051152D02*
X0025000Y0051152D01*
X0025000Y0052751D02*
X0048500Y0052751D01*
X0048500Y0054349D02*
X0025000Y0054349D01*
X0025000Y0055948D02*
X0048500Y0055948D01*
X0048500Y0057546D02*
X0025000Y0057546D01*
X0025000Y0059145D02*
X0048500Y0059145D01*
X0076500Y0040000D02*
X0051000Y0040000D01*
X0051000Y0060000D01*
X0076500Y0060000D01*
X0076500Y0040000D01*
X0076500Y0041561D02*
X0051000Y0041561D01*
X0051000Y0043160D02*
X0076500Y0043160D01*
X0076500Y0044758D02*
X0051000Y0044758D01*
X0051000Y0046357D02*
X0076500Y0046357D01*
X0076500Y0047955D02*
X0051000Y0047955D01*
X0051000Y0049554D02*
X0076500Y0049554D01*
X0076500Y0051152D02*
X0051000Y0051152D01*
X0051000Y0052751D02*
X0076500Y0052751D01*
X0076500Y0054349D02*
X0051000Y0054349D01*
X0051000Y0055948D02*
X0076500Y0055948D01*
X0076500Y0057546D02*
X0051000Y0057546D01*
X0051000Y0059145D02*
X0076500Y0059145D01*
X0054157Y0072000D02*
X0054059Y0072000D01*
X0043843Y0084740D02*
X0027441Y0084740D01*
X0023500Y0080799D01*
D22*
X0060500Y0081400D03*
X0051000Y0064000D03*
X0066000Y0084000D03*
X0081500Y0078500D03*
X0021500Y0022000D03*
X0027000Y0051000D03*
X0031500Y0051000D03*
X0036000Y0051000D03*
X0040500Y0051000D03*
X0045000Y0051000D03*
X0027000Y0046000D03*
X0031500Y0046000D03*
X0027000Y0041500D03*
X0031500Y0041500D03*
X0054000Y0050000D03*
X0058500Y0050000D03*
X0063000Y0050000D03*
X0067500Y0050000D03*
X0072000Y0050000D03*
X0074000Y0054000D03*
X0069500Y0054000D03*
X0069500Y0058500D03*
X0074000Y0058500D03*
M02*
