G75*
%MOIN*%
%OFA0B0*%
%FSLAX25Y25*%
%IPPOS*%
%LPD*%
%AMOC8*
5,1,8,0,0,1.08239X$1,22.5*
%
%ADD10R,0.05118X0.05906*%
%ADD11R,0.04803X0.02441*%
%ADD12R,0.03543X0.02756*%
%ADD13R,0.02756X0.03543*%
%ADD14R,0.05512X0.05512*%
%ADD15R,0.09843X0.05512*%
%ADD16R,0.11811X0.06693*%
%ADD17R,0.11811X0.03150*%
%ADD18R,0.03898X0.02717*%
D10*
X0019510Y0057500D03*
X0026990Y0057500D03*
X0081740Y0042500D03*
X0074260Y0042500D03*
D11*
X0043843Y0084740D03*
X0043843Y0081000D03*
X0043843Y0077260D03*
X0054157Y0077260D03*
X0054157Y0084740D03*
X0054157Y0081000D03*
D12*
X0061500Y0071941D03*
X0061500Y0077059D03*
X0037000Y0081059D03*
X0037000Y0075941D03*
D13*
X0048941Y0072000D03*
X0054059Y0072000D03*
X0046941Y0092000D03*
X0052059Y0092000D03*
D14*
X0018579Y0067020D03*
X0028421Y0067020D03*
D15*
X0023500Y0080799D03*
D16*
X0040000Y0057441D03*
X0040000Y0042559D03*
X0060000Y0057441D03*
X0060000Y0042559D03*
D17*
X0040000Y0064331D03*
X0040000Y0035669D03*
X0060000Y0064331D03*
X0060000Y0035669D03*
D18*
X0019382Y0033740D03*
X0019382Y0030000D03*
X0019382Y0026260D03*
X0029618Y0026260D03*
X0029618Y0030000D03*
X0029618Y0033740D03*
X0081618Y0066760D03*
X0081618Y0070500D03*
X0081618Y0074240D03*
X0071382Y0074240D03*
X0071382Y0070500D03*
X0071382Y0066760D03*
M02*
