G75*
%MOIN*%
%OFA0B0*%
%FSLAX25Y25*%
%IPPOS*%
%LPD*%
%AMOC8*
5,1,8,0,0,1.08239X$1,22.5*
%
%ADD10C,0.00300*%
%ADD11C,0.00200*%
%ADD12C,0.00500*%
%ADD13C,0.01000*%
%ADD14C,0.00400*%
%ADD15C,0.00394*%
%ADD16C,0.00100*%
%ADD17C,0.00600*%
%ADD18C,0.00800*%
%ADD19C,0.01414*%
D10*
X0054413Y0005896D02*
X0054413Y0002993D01*
X0052962Y0002993D01*
X0052478Y0003477D01*
X0052478Y0004444D01*
X0052962Y0004928D01*
X0054413Y0004928D01*
X0056392Y0002026D02*
X0056876Y0002026D01*
X0057360Y0002509D01*
X0057360Y0004928D01*
X0055909Y0004928D01*
X0055425Y0004444D01*
X0055425Y0003477D01*
X0055909Y0002993D01*
X0057360Y0002993D01*
X0058371Y0002993D02*
X0058371Y0004928D01*
X0059823Y0004928D01*
X0060306Y0004444D01*
X0060306Y0002993D01*
X0063253Y0005896D02*
X0063253Y0002993D01*
X0061802Y0002993D01*
X0061318Y0003477D01*
X0061318Y0004444D01*
X0061802Y0004928D01*
X0063253Y0004928D01*
X0039146Y0004455D02*
X0037211Y0004455D01*
X0038178Y0005422D02*
X0038178Y0003487D01*
X0040157Y0005422D02*
X0040641Y0005906D01*
X0041608Y0005906D01*
X0042092Y0005422D01*
X0042092Y0004939D01*
X0041608Y0004455D01*
X0041125Y0004455D01*
X0041608Y0004455D02*
X0042092Y0003971D01*
X0042092Y0003487D01*
X0041608Y0003004D01*
X0040641Y0003004D01*
X0040157Y0003487D01*
X0043104Y0005906D02*
X0043104Y0003971D01*
X0044071Y0003004D01*
X0045039Y0003971D01*
X0045039Y0005906D01*
X0046050Y0005422D02*
X0046534Y0005906D01*
X0047501Y0005906D01*
X0047985Y0005422D01*
X0047985Y0004939D01*
X0047501Y0004455D01*
X0047018Y0004455D01*
X0047501Y0004455D02*
X0047985Y0003971D01*
X0047985Y0003487D01*
X0047501Y0003004D01*
X0046534Y0003004D01*
X0046050Y0003487D01*
X0024400Y0048650D02*
X0024400Y0052353D01*
X0026252Y0052353D01*
X0026869Y0051736D01*
X0026869Y0050502D01*
X0026252Y0049884D01*
X0024400Y0049884D01*
X0025634Y0049884D02*
X0026869Y0048650D01*
X0028083Y0051119D02*
X0029318Y0052353D01*
X0029318Y0048650D01*
X0030552Y0048650D02*
X0028083Y0048650D01*
X0081650Y0047650D02*
X0081650Y0051353D01*
X0083502Y0051353D01*
X0084119Y0050736D01*
X0084119Y0049502D01*
X0083502Y0048884D01*
X0081650Y0048884D01*
X0082884Y0048884D02*
X0084119Y0047650D01*
X0087802Y0047650D02*
X0085333Y0047650D01*
X0087802Y0050119D01*
X0087802Y0050736D01*
X0087185Y0051353D01*
X0085950Y0051353D01*
X0085333Y0050736D01*
X0035884Y0089150D02*
X0034650Y0089150D01*
X0035267Y0089150D02*
X0035267Y0092853D01*
X0034650Y0092853D02*
X0035884Y0092853D01*
X0039574Y0092236D02*
X0038957Y0092853D01*
X0037723Y0092853D01*
X0037105Y0092236D01*
X0037105Y0089767D01*
X0037723Y0089150D01*
X0038957Y0089150D01*
X0039574Y0089767D01*
X0040789Y0091619D02*
X0042023Y0092853D01*
X0042023Y0089150D01*
X0040789Y0089150D02*
X0043257Y0089150D01*
X0064650Y0078650D02*
X0064650Y0082353D01*
X0066502Y0082353D01*
X0067119Y0081736D01*
X0067119Y0080502D01*
X0066502Y0079884D01*
X0064650Y0079884D01*
X0065884Y0079884D02*
X0067119Y0078650D01*
X0068333Y0081736D02*
X0068950Y0082353D01*
X0070185Y0082353D01*
X0070802Y0081736D01*
X0070802Y0081119D01*
X0070185Y0080502D01*
X0069568Y0080502D01*
X0070185Y0080502D02*
X0070802Y0079884D01*
X0070802Y0079267D01*
X0070185Y0078650D01*
X0068950Y0078650D01*
X0068333Y0079267D01*
X0074485Y0082353D02*
X0073251Y0081736D01*
X0072016Y0080502D01*
X0072016Y0079267D01*
X0072633Y0078650D01*
X0073868Y0078650D01*
X0074485Y0079267D01*
X0074485Y0079884D01*
X0073868Y0080502D01*
X0072016Y0080502D01*
X0046150Y0065650D02*
X0046150Y0069353D01*
X0048002Y0069353D01*
X0048619Y0068736D01*
X0048619Y0067502D01*
X0048002Y0066884D01*
X0046150Y0066884D01*
X0047384Y0066884D02*
X0048619Y0065650D01*
X0049833Y0068736D02*
X0050450Y0069353D01*
X0051685Y0069353D01*
X0052302Y0068736D01*
X0052302Y0068119D01*
X0051685Y0067502D01*
X0051068Y0067502D01*
X0051685Y0067502D02*
X0052302Y0066884D01*
X0052302Y0066267D01*
X0051685Y0065650D01*
X0050450Y0065650D01*
X0049833Y0066267D01*
X0053516Y0069353D02*
X0055985Y0069353D01*
X0055985Y0068736D01*
X0053516Y0066267D01*
X0053516Y0065650D01*
X0032150Y0068650D02*
X0032150Y0072353D01*
X0034002Y0072353D01*
X0034619Y0071736D01*
X0034619Y0070502D01*
X0034002Y0069884D01*
X0032150Y0069884D01*
X0033384Y0069884D02*
X0034619Y0068650D01*
X0038302Y0071736D02*
X0037685Y0072353D01*
X0036450Y0072353D01*
X0035833Y0071736D01*
X0035833Y0071119D01*
X0036450Y0070502D01*
X0037685Y0070502D01*
X0038302Y0069884D01*
X0038302Y0069267D01*
X0037685Y0068650D01*
X0036450Y0068650D01*
X0035833Y0069267D01*
X0041985Y0072353D02*
X0039516Y0072353D01*
X0039516Y0068650D01*
X0041985Y0068650D01*
X0040751Y0070502D02*
X0039516Y0070502D01*
X0044434Y0072353D02*
X0044434Y0068650D01*
X0043199Y0072353D02*
X0045668Y0072353D01*
X0014866Y0063601D02*
X0011163Y0063601D01*
X0011163Y0065452D01*
X0011780Y0066069D01*
X0013014Y0066069D01*
X0013631Y0065452D01*
X0013631Y0063601D01*
X0013631Y0064835D02*
X0014866Y0066069D01*
X0011780Y0067284D02*
X0011163Y0067901D01*
X0011163Y0069135D01*
X0011780Y0069752D01*
X0012397Y0069752D01*
X0013014Y0069135D01*
X0013014Y0068518D01*
X0013014Y0069135D02*
X0013631Y0069752D01*
X0014249Y0069752D01*
X0014866Y0069135D01*
X0014866Y0067901D01*
X0014249Y0067284D01*
X0014249Y0070967D02*
X0014866Y0071584D01*
X0014866Y0072818D01*
X0014249Y0073436D01*
X0011780Y0073436D01*
X0011163Y0072818D01*
X0011163Y0071584D01*
X0011780Y0070967D01*
X0012397Y0070967D01*
X0013014Y0071584D01*
X0013014Y0073436D01*
D11*
X0015482Y0061370D02*
X0031018Y0061370D01*
X0031018Y0053630D01*
X0015482Y0053630D01*
X0015482Y0061370D01*
X0085768Y0038630D02*
X0070232Y0038630D01*
X0070232Y0046370D01*
X0085768Y0046370D01*
X0085768Y0038630D01*
X0059598Y0068701D02*
X0059598Y0080299D01*
X0063402Y0080299D01*
X0063402Y0068701D01*
X0059598Y0068701D01*
X0045701Y0073902D02*
X0057299Y0073902D01*
X0057299Y0070098D01*
X0045701Y0070098D01*
X0045701Y0073902D01*
X0038902Y0084299D02*
X0038902Y0072701D01*
X0035098Y0072701D01*
X0035098Y0084299D01*
X0038902Y0084299D01*
X0043701Y0093902D02*
X0055299Y0093902D01*
X0055299Y0090098D01*
X0043701Y0090098D01*
X0043701Y0093902D01*
D12*
X0040500Y0087000D02*
X0040500Y0075000D01*
X0057500Y0075000D01*
X0057500Y0087000D01*
X0040500Y0087000D01*
X0038500Y0085000D02*
X0038502Y0085044D01*
X0038508Y0085088D01*
X0038518Y0085131D01*
X0038531Y0085173D01*
X0038548Y0085214D01*
X0038569Y0085253D01*
X0038593Y0085290D01*
X0038620Y0085325D01*
X0038650Y0085357D01*
X0038683Y0085387D01*
X0038719Y0085413D01*
X0038756Y0085437D01*
X0038796Y0085456D01*
X0038837Y0085473D01*
X0038880Y0085485D01*
X0038923Y0085494D01*
X0038967Y0085499D01*
X0039011Y0085500D01*
X0039055Y0085497D01*
X0039099Y0085490D01*
X0039142Y0085479D01*
X0039184Y0085465D01*
X0039224Y0085447D01*
X0039263Y0085425D01*
X0039299Y0085401D01*
X0039333Y0085373D01*
X0039365Y0085342D01*
X0039394Y0085308D01*
X0039420Y0085272D01*
X0039442Y0085234D01*
X0039461Y0085194D01*
X0039476Y0085152D01*
X0039488Y0085110D01*
X0039496Y0085066D01*
X0039500Y0085022D01*
X0039500Y0084978D01*
X0039496Y0084934D01*
X0039488Y0084890D01*
X0039476Y0084848D01*
X0039461Y0084806D01*
X0039442Y0084766D01*
X0039420Y0084728D01*
X0039394Y0084692D01*
X0039365Y0084658D01*
X0039333Y0084627D01*
X0039299Y0084599D01*
X0039263Y0084575D01*
X0039224Y0084553D01*
X0039184Y0084535D01*
X0039142Y0084521D01*
X0039099Y0084510D01*
X0039055Y0084503D01*
X0039011Y0084500D01*
X0038967Y0084501D01*
X0038923Y0084506D01*
X0038880Y0084515D01*
X0038837Y0084527D01*
X0038796Y0084544D01*
X0038756Y0084563D01*
X0038719Y0084587D01*
X0038683Y0084613D01*
X0038650Y0084643D01*
X0038620Y0084675D01*
X0038593Y0084710D01*
X0038569Y0084747D01*
X0038548Y0084786D01*
X0038531Y0084827D01*
X0038518Y0084869D01*
X0038508Y0084912D01*
X0038502Y0084956D01*
X0038500Y0085000D01*
D13*
X0030980Y0081980D02*
X0030980Y0070169D01*
X0026059Y0070169D02*
X0020941Y0070169D01*
X0016020Y0070169D02*
X0016020Y0081980D01*
X0059500Y0007000D02*
X0039500Y0007000D01*
X0039500Y0014500D01*
X0039500Y0032000D01*
X0059500Y0032000D01*
X0059500Y0014500D01*
X0059500Y0007000D01*
X0059500Y0014500D02*
X0039500Y0014500D01*
D14*
X0061769Y0094537D02*
X0061002Y0095304D01*
X0059467Y0095304D01*
X0058700Y0094537D01*
X0058700Y0091467D01*
X0059467Y0090700D01*
X0061002Y0090700D01*
X0061769Y0091467D01*
X0063304Y0093769D02*
X0064839Y0095304D01*
X0064839Y0090700D01*
X0066373Y0090700D02*
X0063304Y0090700D01*
X0067908Y0093769D02*
X0069442Y0095304D01*
X0069442Y0090700D01*
X0067908Y0090700D02*
X0070977Y0090700D01*
X0015700Y0036967D02*
X0015700Y0040037D01*
X0016467Y0040804D01*
X0018002Y0040804D01*
X0018769Y0040037D01*
X0018769Y0036967D01*
X0018002Y0036200D01*
X0016467Y0036200D01*
X0015700Y0036967D01*
X0017235Y0037735D02*
X0018769Y0036200D01*
X0020304Y0039269D02*
X0021839Y0040804D01*
X0021839Y0036200D01*
X0023373Y0036200D02*
X0020304Y0036200D01*
X0078492Y0059967D02*
X0078492Y0063037D01*
X0079259Y0063804D01*
X0080794Y0063804D01*
X0081561Y0063037D01*
X0081561Y0059967D01*
X0080794Y0059200D01*
X0079259Y0059200D01*
X0078492Y0059967D01*
X0080027Y0060735D02*
X0081561Y0059200D01*
X0086165Y0059200D02*
X0083096Y0059200D01*
X0086165Y0062269D01*
X0086165Y0063037D01*
X0085398Y0063804D01*
X0083863Y0063804D01*
X0083096Y0063037D01*
D15*
X0033500Y0053500D02*
X0033500Y0066500D01*
X0046500Y0066500D01*
X0046500Y0053500D01*
X0033500Y0053500D01*
X0046500Y0046500D02*
X0046500Y0033500D01*
X0033500Y0033500D01*
X0033500Y0046500D01*
X0046500Y0046500D01*
X0053500Y0053500D02*
X0053500Y0066500D01*
X0066500Y0066500D01*
X0066500Y0053500D01*
X0053500Y0053500D01*
X0066500Y0046500D02*
X0066500Y0033500D01*
X0053500Y0033500D01*
X0053500Y0046500D01*
X0066500Y0046500D01*
D16*
X0047050Y0055551D02*
X0047050Y0054050D01*
X0048051Y0054050D01*
X0049524Y0055551D02*
X0048523Y0055551D01*
X0048523Y0054050D01*
X0049524Y0054050D01*
X0049024Y0054801D02*
X0048523Y0054801D01*
X0049997Y0055551D02*
X0049997Y0054050D01*
X0050747Y0054050D01*
X0050997Y0054300D01*
X0050997Y0055301D01*
X0050747Y0055551D01*
X0049997Y0055551D01*
X0051470Y0055051D02*
X0051970Y0055551D01*
X0051970Y0054050D01*
X0051470Y0054050D02*
X0052471Y0054050D01*
X0047550Y0047551D02*
X0047550Y0046050D01*
X0048551Y0046050D01*
X0050024Y0047551D02*
X0049023Y0047551D01*
X0049023Y0046050D01*
X0050024Y0046050D01*
X0049524Y0046801D02*
X0049023Y0046801D01*
X0050497Y0047551D02*
X0050497Y0046050D01*
X0051247Y0046050D01*
X0051497Y0046300D01*
X0051497Y0047301D01*
X0051247Y0047551D01*
X0050497Y0047551D01*
X0052971Y0046050D02*
X0051970Y0046050D01*
X0052971Y0047051D01*
X0052971Y0047301D01*
X0052720Y0047551D01*
X0052220Y0047551D01*
X0051970Y0047301D01*
X0068550Y0055551D02*
X0068550Y0054050D01*
X0069551Y0054050D01*
X0071024Y0055551D02*
X0070023Y0055551D01*
X0070023Y0054050D01*
X0071024Y0054050D01*
X0070524Y0054801D02*
X0070023Y0054801D01*
X0071497Y0055551D02*
X0071497Y0054050D01*
X0072247Y0054050D01*
X0072497Y0054300D01*
X0072497Y0055301D01*
X0072247Y0055551D01*
X0071497Y0055551D01*
X0072970Y0055301D02*
X0073220Y0055551D01*
X0073720Y0055551D01*
X0073971Y0055301D01*
X0073971Y0055051D01*
X0073720Y0054801D01*
X0073470Y0054801D01*
X0073720Y0054801D02*
X0073971Y0054550D01*
X0073971Y0054300D01*
X0073720Y0054050D01*
X0073220Y0054050D01*
X0072970Y0054300D01*
X0034658Y0049450D02*
X0033657Y0050951D01*
X0034658Y0050951D02*
X0033657Y0049450D01*
X0035130Y0049450D02*
X0035130Y0050951D01*
X0035130Y0050201D02*
X0036131Y0050201D01*
X0036131Y0050951D02*
X0036131Y0049450D01*
X0036603Y0050201D02*
X0037604Y0050201D01*
X0039078Y0050701D02*
X0038827Y0050951D01*
X0038327Y0050951D01*
X0038077Y0050701D01*
X0038077Y0049700D01*
X0038327Y0049450D01*
X0038827Y0049450D01*
X0039078Y0049700D01*
X0039078Y0050201D01*
X0038577Y0050201D01*
X0067550Y0049051D02*
X0067550Y0047550D01*
X0068551Y0047550D01*
X0070024Y0049051D02*
X0069023Y0049051D01*
X0069023Y0047550D01*
X0070024Y0047550D01*
X0069524Y0048301D02*
X0069023Y0048301D01*
X0070497Y0049051D02*
X0070497Y0047550D01*
X0071247Y0047550D01*
X0071497Y0047800D01*
X0071497Y0048801D01*
X0071247Y0049051D01*
X0070497Y0049051D01*
X0072720Y0047550D02*
X0072720Y0049051D01*
X0071970Y0048301D01*
X0072971Y0048301D01*
D17*
X0049800Y0030703D02*
X0052069Y0027300D01*
X0049800Y0027300D02*
X0052069Y0030703D01*
X0053483Y0029569D02*
X0054617Y0030703D01*
X0054617Y0027300D01*
X0053483Y0027300D02*
X0055752Y0027300D01*
D18*
X0027453Y0024488D02*
X0021547Y0024488D01*
X0021547Y0035512D02*
X0027453Y0035512D01*
X0073547Y0076012D02*
X0079453Y0076012D01*
X0079453Y0064988D02*
X0073547Y0064988D01*
D19*
X0023000Y0034000D03*
X0078000Y0066500D03*
M02*
